<svg viewBox="0 0 67 24" fill="none" xmlns="http://www.w3.org/2000/svg">
<path d="M2.784 18.216C2.192 18.216 1.768 18.136 1.512 17.976C1.272 17.8 1.12 17.568 1.056 17.28C1.008 16.992 0.984 16.696 0.984 16.392V8.016C0.984 7.696 1.016 7.4 1.08 7.128C1.144 6.856 1.296 6.64 1.536 6.48C1.792 6.304 2.216 6.216 2.808 6.216C3.368 6.216 3.768 6.296 4.008 6.456C4.264 6.6 4.424 6.776 4.488 6.984C4.552 7.176 4.584 7.344 4.584 7.488L4.296 7.632C4.328 7.568 4.408 7.456 4.536 7.296C4.68 7.12 4.872 6.944 5.112 6.768C5.352 6.576 5.64 6.416 5.976 6.288C6.328 6.16 6.728 6.096 7.176 6.096C7.352 6.096 7.544 6.112 7.752 6.144C7.976 6.16 8.2 6.208 8.424 6.288C8.664 6.352 8.88 6.448 9.072 6.576C9.264 6.688 9.416 6.832 9.528 7.008C9.656 7.184 9.72 7.4 9.72 7.656C9.72 8.312 9.568 8.872 9.264 9.336C8.96 9.784 8.576 10.008 8.112 10.008C7.84 10.008 7.648 9.984 7.536 9.936C7.424 9.888 7.328 9.84 7.248 9.792C7.184 9.744 7.104 9.704 7.008 9.672C6.912 9.624 6.736 9.6 6.48 9.6C6.24 9.6 6.008 9.632 5.784 9.696C5.576 9.76 5.376 9.864 5.184 10.008C5.008 10.136 4.864 10.304 4.752 10.512C4.656 10.704 4.608 10.92 4.608 11.16V16.44C4.608 16.744 4.576 17.04 4.512 17.328C4.464 17.6 4.312 17.816 4.056 17.976C3.8 18.136 3.376 18.216 2.784 18.216ZM13.0524 18.216C12.4604 18.216 12.0364 18.136 11.7804 17.976C11.5404 17.8 11.3884 17.576 11.3244 17.304C11.2764 17.016 11.2524 16.72 11.2524 16.416V8.04C11.2524 7.72 11.2764 7.424 11.3244 7.152C11.3884 6.88 11.5484 6.664 11.8044 6.504C12.0604 6.328 12.4844 6.24 13.0764 6.24C13.6524 6.24 14.0604 6.328 14.3004 6.504C14.5564 6.68 14.7084 6.904 14.7564 7.176C14.8204 7.448 14.8524 7.752 14.8524 8.088V16.44C14.8524 16.744 14.8204 17.04 14.7564 17.328C14.7084 17.6 14.5564 17.816 14.3004 17.976C14.0604 18.136 13.6444 18.216 13.0524 18.216ZM13.0524 4.488C12.4444 4.488 12.0124 4.4 11.7564 4.224C11.5004 4.048 11.3404 3.816 11.2764 3.528C11.2284 3.24 11.2044 2.936 11.2044 2.616C11.2044 2.28 11.2364 1.976 11.3004 1.704C11.3644 1.416 11.5244 1.192 11.7804 1.032C12.0364 0.855999 12.4684 0.767999 13.0764 0.767999C13.6684 0.767999 14.0924 0.855999 14.3484 1.032C14.6044 1.208 14.7564 1.44 14.8044 1.728C14.8684 2.016 14.9004 2.32 14.9004 2.64C14.9004 2.96 14.8684 3.264 14.8044 3.552C14.7564 3.84 14.6044 4.072 14.3484 4.248C14.0924 4.408 13.6604 4.488 13.0524 4.488ZM18.6969 18.216C18.1209 18.216 17.7049 18.128 17.4489 17.952C17.1929 17.776 17.0409 17.552 16.9929 17.28C16.9449 17.008 16.9209 16.712 16.9209 16.392V7.992C16.9209 7.672 16.9449 7.384 16.9929 7.128C17.0569 6.856 17.2169 6.64 17.4729 6.48C17.7289 6.304 18.1529 6.216 18.7449 6.216C19.3369 6.216 19.7689 6.336 20.0409 6.576C20.3129 6.8 20.4489 7.176 20.4489 7.704L20.1369 7.968C20.1689 7.888 20.2649 7.752 20.4249 7.56C20.5849 7.368 20.7929 7.168 21.0489 6.96C21.3049 6.752 21.6009 6.576 21.9369 6.432C22.2889 6.272 22.6649 6.192 23.0649 6.192C23.5929 6.192 24.0649 6.272 24.4809 6.432C24.9129 6.576 25.2969 6.8 25.6329 7.104C25.9849 7.392 26.2889 7.76 26.5449 8.208C26.7689 7.888 27.0409 7.576 27.3609 7.272C27.6809 6.968 28.0569 6.712 28.4889 6.504C28.9369 6.296 29.4329 6.192 29.9769 6.192C30.9049 6.192 31.6889 6.432 32.3289 6.912C32.9849 7.376 33.4809 8.048 33.8169 8.928C34.1529 9.808 34.3209 10.872 34.3209 12.12V16.416C34.3209 16.72 34.2889 17.016 34.2249 17.304C34.1769 17.576 34.0249 17.8 33.7689 17.976C33.5129 18.136 33.0889 18.216 32.4969 18.216C31.9049 18.216 31.4809 18.128 31.2249 17.952C30.9849 17.776 30.8329 17.552 30.7689 17.28C30.7209 16.992 30.6969 16.696 30.6969 16.392V12.096C30.6969 11.6 30.6409 11.184 30.5289 10.848C30.4169 10.512 30.2409 10.256 30.0009 10.08C29.7769 9.888 29.4889 9.792 29.1369 9.792C28.7689 9.792 28.4569 9.88 28.2009 10.056C27.9449 10.216 27.7529 10.472 27.6249 10.824C27.4969 11.16 27.4329 11.592 27.4329 12.12V16.416C27.4329 16.736 27.3929 17.04 27.3129 17.328C27.2329 17.6 27.0569 17.824 26.7849 18C26.5289 18.16 26.1129 18.232 25.5369 18.216C24.9609 18.2 24.5529 18.104 24.3129 17.928C24.0729 17.752 23.9289 17.528 23.8809 17.256C23.8329 16.968 23.8089 16.68 23.8089 16.392V12.096C23.8089 11.6 23.7529 11.184 23.6409 10.848C23.5289 10.496 23.3609 10.232 23.1369 10.056C22.9129 9.88 22.6169 9.792 22.2489 9.792C21.8489 9.792 21.5209 9.896 21.2649 10.104C21.0089 10.312 20.8169 10.592 20.6889 10.944C20.5769 11.28 20.5209 11.664 20.5209 12.096V16.416C20.5209 16.736 20.4889 17.032 20.4249 17.304C20.3769 17.576 20.2249 17.8 19.9689 17.976C19.7129 18.136 19.2889 18.216 18.6969 18.216ZM38.1306 18.216C37.5386 18.216 37.1146 18.136 36.8586 17.976C36.6186 17.8 36.4666 17.576 36.4026 17.304C36.3546 17.016 36.3306 16.72 36.3306 16.416V8.04C36.3306 7.72 36.3546 7.424 36.4026 7.152C36.4666 6.88 36.6266 6.664 36.8826 6.504C37.1386 6.328 37.5626 6.24 38.1546 6.24C38.7306 6.24 39.1386 6.328 39.3786 6.504C39.6346 6.68 39.7866 6.904 39.8346 7.176C39.8986 7.448 39.9306 7.752 39.9306 8.088V16.44C39.9306 16.744 39.8986 17.04 39.8346 17.328C39.7866 17.6 39.6346 17.816 39.3786 17.976C39.1386 18.136 38.7226 18.216 38.1306 18.216ZM38.1306 4.488C37.5226 4.488 37.0906 4.4 36.8346 4.224C36.5786 4.048 36.4186 3.816 36.3546 3.528C36.3066 3.24 36.2826 2.936 36.2826 2.616C36.2826 2.28 36.3146 1.976 36.3786 1.704C36.4426 1.416 36.6026 1.192 36.8586 1.032C37.1146 0.855999 37.5466 0.767999 38.1546 0.767999C38.7466 0.767999 39.1706 0.855999 39.4266 1.032C39.6826 1.208 39.8346 1.44 39.8826 1.728C39.9466 2.016 39.9786 2.32 39.9786 2.64C39.9786 2.96 39.9466 3.264 39.8826 3.552C39.8346 3.84 39.6826 4.072 39.4266 4.248C39.1706 4.408 38.7386 4.488 38.1306 4.488ZM43.8231 18.192C43.2311 18.192 42.8071 18.112 42.5511 17.952C42.3111 17.776 42.1591 17.552 42.0951 17.28C42.0471 16.992 42.0231 16.696 42.0231 16.392V7.944C42.0231 7.64 42.0551 7.36 42.1191 7.104C42.1831 6.832 42.3351 6.616 42.5751 6.456C42.8311 6.296 43.2551 6.216 43.8471 6.216C44.3591 6.216 44.7351 6.288 44.9751 6.432C45.2151 6.56 45.3671 6.72 45.4311 6.912C45.5111 7.104 45.5511 7.288 45.5511 7.464C45.5511 7.624 45.5671 7.736 45.5991 7.8L45.4551 8.256C45.4871 8.016 45.6071 7.776 45.8151 7.536C46.0391 7.28 46.3111 7.056 46.6311 6.864C46.9671 6.656 47.3191 6.496 47.6871 6.384C48.0711 6.272 48.4471 6.216 48.8151 6.216C49.5831 6.216 50.2631 6.36 50.8551 6.648C51.4631 6.92 51.9751 7.32 52.3911 7.848C52.8071 8.376 53.1191 9 53.3271 9.72C53.5511 10.424 53.6631 11.2 53.6631 12.048V16.416C53.6631 16.72 53.6311 17.016 53.5671 17.304C53.5191 17.576 53.3671 17.792 53.1111 17.952C52.8711 18.112 52.4551 18.192 51.8631 18.192C51.2551 18.192 50.8231 18.112 50.5671 17.952C50.3271 17.776 50.1751 17.552 50.1111 17.28C50.0471 16.992 50.0151 16.696 50.0151 16.392V12.048C50.0151 11.568 49.9351 11.16 49.7751 10.824C49.6151 10.488 49.3751 10.232 49.0551 10.056C48.7351 9.864 48.3431 9.768 47.8791 9.768C47.4151 9.768 47.0151 9.864 46.6791 10.056C46.3431 10.248 46.0791 10.512 45.8871 10.848C45.7111 11.184 45.6231 11.584 45.6231 12.048V16.416C45.6231 16.72 45.5911 17.016 45.5271 17.304C45.4791 17.576 45.3271 17.792 45.0711 17.952C44.8311 18.112 44.4151 18.192 43.8231 18.192ZM60.9465 23.16C60.3865 23.16 59.8265 23.088 59.2665 22.944C58.7065 22.8 58.1945 22.608 57.7305 22.368C57.2665 22.128 56.8985 21.872 56.6265 21.6C56.3545 21.328 56.2185 21.056 56.2185 20.784C56.2185 20.528 56.2665 20.288 56.3625 20.064C56.4585 19.856 56.6025 19.648 56.7945 19.44C57.0185 19.2 57.2105 19.016 57.3705 18.888C57.5305 18.76 57.7225 18.696 57.9465 18.696C58.1705 18.696 58.3705 18.752 58.5465 18.864C58.7225 18.992 58.9065 19.128 59.0985 19.272C59.3065 19.416 59.5625 19.544 59.8665 19.656C60.1705 19.784 60.5545 19.848 61.0185 19.848C61.3545 19.848 61.6585 19.784 61.9305 19.656C62.2025 19.544 62.4425 19.368 62.6505 19.128C62.8585 18.904 63.0185 18.632 63.1305 18.312C63.2425 18.008 63.2985 17.664 63.2985 17.28V7.344C63.3465 6.928 63.5065 6.632 63.7785 6.456C64.0665 6.264 64.4985 6.168 65.0745 6.168C65.6505 6.168 66.0505 6.256 66.2745 6.432C66.5145 6.592 66.6585 6.808 66.7065 7.08C66.7705 7.352 66.8025 7.64 66.8025 7.944V17.424C66.8025 18.336 66.6345 19.144 66.2985 19.848C65.9625 20.568 65.5145 21.168 64.9545 21.648C64.3945 22.144 63.7705 22.52 63.0825 22.776C62.3945 23.032 61.6825 23.16 60.9465 23.16ZM60.5145 17.904C59.7945 17.904 59.1065 17.752 58.4505 17.448C57.8105 17.128 57.2345 16.696 56.7225 16.152C56.2265 15.608 55.8345 14.984 55.5465 14.28C55.2585 13.576 55.1145 12.832 55.1145 12.048C55.1145 11.264 55.2585 10.528 55.5465 9.84C55.8345 9.136 56.2265 8.52 56.7225 7.992C57.2345 7.448 57.8105 7.024 58.4505 6.72C59.1065 6.4 59.7945 6.24 60.5145 6.24C61.2185 6.24 61.8185 6.384 62.3145 6.672C62.8105 6.944 63.2105 7.344 63.5145 7.872C63.8345 8.384 64.0665 9 64.2105 9.72C64.3545 10.424 64.4265 11.216 64.4265 12.096C64.4265 13.28 64.2985 14.312 64.0425 15.192C63.7865 16.056 63.3705 16.728 62.7945 17.208C62.2185 17.672 61.4585 17.904 60.5145 17.904ZM60.9465 14.424C61.3625 14.424 61.7385 14.32 62.0745 14.112C62.4105 13.888 62.6745 13.6 62.8665 13.248C63.0745 12.896 63.1785 12.496 63.1785 12.048C63.1785 11.6 63.0745 11.2 62.8665 10.848C62.6745 10.496 62.4025 10.216 62.0505 10.008C61.7145 9.8 61.3305 9.696 60.8985 9.696C60.4665 9.696 60.0825 9.8 59.7465 10.008C59.4105 10.216 59.1385 10.504 58.9305 10.872C58.7385 11.224 58.6425 11.624 58.6425 12.072C58.6425 12.504 58.7465 12.896 58.9545 13.248C59.1625 13.6 59.4345 13.888 59.7705 14.112C60.1225 14.32 60.5145 14.424 60.9465 14.424Z" fill="currentColor"/>
</svg>
