<svg width="24" height="24" viewBox="0 0 24 24" fill="none" xmlns="http://www.w3.org/2000/svg">
<g clip-path="url(#clip0_3_152)">
<path d="M18.6667 8.14286H15.9733V6.83143C15.9733 4.72286 14.1867 3 12 3C9.81333 3 8.02667 4.72286 8.02667 6.83143V8.14286H5.33333C4.6 8.14286 4 8.72143 4 9.44143V13.9286H20V9.44143C20 8.72143 19.4 8.14286 18.6667 8.14286ZM9.36 6.83143C9.36 5.43 10.5467 4.28571 12 4.28571C13.4533 4.28571 14.64 5.43 14.64 6.83143V8.14286H9.36V6.83143Z" fill="#C6C6C6"/>
<path d="M4 19.7143C4 20.4214 4.6 21 5.33333 21H18.6667C19.4 21 20 20.4214 20 19.7143V15.2143H4V19.7143Z" fill="#C6C6C6"/>
</g>
<defs>
<clipPath id="clip0_3_152">
<rect width="16" height="18" fill="white" transform="translate(4 3)"/>
</clipPath>
</defs>
</svg>
