<svg viewBox="0 0 24 24" fill="none" xmlns="http://www.w3.org/2000/svg">
<path fill-rule="evenodd" clip-rule="evenodd" d="M20.6997 3.30029C20.2993 2.8999 19.6501 2.8999 19.2498 3.30029L12 10.5501L4.75024 3.30029C4.34985 2.8999 3.70068 2.8999 3.30029 3.30029C2.8999 3.70069 2.8999 4.34985 3.30029 4.75025L10.55 12L3.30031 19.2498C2.89992 19.6501 2.89992 20.2993 3.30031 20.6997C3.70071 21.1001 4.34987 21.1001 4.75026 20.6997L12 13.45L19.2497 20.6997C19.6501 21.1001 20.2993 21.1001 20.6997 20.6997C21.1001 20.2993 21.1001 19.6501 20.6997 19.2498L13.4499 12L20.6997 4.75024C21.1001 4.34985 21.1001 3.70069 20.6997 3.30029Z" fill="currentColor"/>
</svg>
