<svg viewBox="0 0 24 24" fill="none" xmlns="http://www.w3.org/2000/svg">
<circle cx="12" cy="12" r="12" fill="#A0A0A0"/>
<g clip-path="url(#clip0_44_130)">
<path d="M16.4444 9.14285H14.6488V8.17142C14.6488 6.60952 13.4577 5.33333 12 5.33333C10.5422 5.33333 9.35107 6.60952 9.35107 8.17142V9.14285H7.55551C7.06663 9.14285 6.66663 9.57142 6.66663 10.1048V13.4286H17.3333V10.1048C17.3333 9.57142 16.9333 9.14285 16.4444 9.14285ZM10.24 8.17142C10.24 7.13333 11.0311 6.28571 12 6.28571C12.9688 6.28571 13.76 7.13333 13.76 8.17142V9.14285H10.24V8.17142Z" fill="white"/>
<path d="M6.66663 17.7143C6.66663 18.2381 7.06663 18.6667 7.55551 18.6667H16.4444C16.9333 18.6667 17.3333 18.2381 17.3333 17.7143V14.381H6.66663V17.7143Z" fill="white"/>
</g>
<defs>
<clipPath id="clip0_44_130">
<rect width="10.6667" height="13.3333" fill="white" transform="translate(6.66663 5.33333)"/>
</clipPath>
</defs>
</svg>
