<svg viewBox="0 0 24 24" fill="none" xmlns="http://www.w3.org/2000/svg">
<path fill-rule="evenodd" clip-rule="evenodd" d="M15.0274 10.0137C15.0274 12.7827 12.7827 15.0274 10.0137 15.0274C7.24472 15.0274 5 12.7827 5 10.0137C5 7.24472 7.24472 5 10.0137 5C12.7827 5 15.0274 7.24472 15.0274 10.0137ZM14.2141 15.6311C13.0432 16.508 11.5891 17.0274 10.0137 17.0274C6.14015 17.0274 3 13.8873 3 10.0137C3 6.14015 6.14015 3 10.0137 3C13.8873 3 17.0274 6.14015 17.0274 10.0137C17.0274 11.5891 16.508 13.0432 15.6311 14.2141L20.7065 19.2895C21.0978 19.6808 21.0978 20.3152 20.7065 20.7065C20.3153 21.0978 19.6808 21.0978 19.2896 20.7065L14.2141 15.6311Z" fill="currentColor"/>
</svg>
